<svg width="800" height="800" viewBox="0 0 24 24" xmlns="http://www.w3.org/2000/svg"><path fill="#00000044" d="M24 13a11 11 0 0 1-18.037 8.451l-.256.256A1 1 0 0 1 5 22a.987.987 0 0 1-.383-.076A1 1 0 0 1 4 21v-2a1 1 0 0 1 1-1h2a1 1 0 0 1 .707 1.707l-.322.322A9 9 0 1 0 4 13a9.107 9.107 0 0 0 .18 1.8 1 1 0 0 1-1.96.4A11 11 0 1 1 24 13ZM13 6a1 1 0 0 0-1 1v6a1 1 0 0 0 1 1h5a1 1 0 0 0 0-2h-4V7a1 1 0 0 0-1-1Z"/><path fill="#d7dca966" d="M23 12a11 11 0 0 1-18.037 8.451l-.256.256A1 1 0 0 1 4 21a.987.987 0 0 1-.383-.076A1 1 0 0 1 3 20v-2a1 1 0 0 1 1-1h2a1 1 0 0 1 .707 1.707l-.322.322A9 9 0 1 0 3 12a9.107 9.107 0 0 0 .18 1.8 1 1 0 0 1-1.96.4A11 11 0 1 1 23 12ZM12 5a1 1 0 0 0-1 1v6a1 1 0 0 0 1 1h5a1 1 0 0 0 0-2h-4V6a1 1 0 0 0-1-1Z"/></svg>